<svg width="139" height="165" viewBox="0 0 139 165" fill="none" xmlns="http://www.w3.org/2000/svg">
<path d="M151.493 93.9342C151.648 94.4469 151.688 94.9856 151.612 95.5089C151.536 96.0322 151.344 96.5262 151.052 96.9531C150.76 97.38 150.375 97.7283 149.927 97.9714C149.479 98.2145 148.98 98.3459 148.467 98.3555C146.783 98.1935 145.176 97.4678 143.891 96.2884C143.419 96.0313 142.968 95.7303 142.546 95.3892C141.056 94 139.493 92.6984 137.865 91.4909C136.191 90.3837 134.517 89.2766 132.837 88.0935C132.328 87.9307 131.831 87.7369 131.339 87.6191C128.595 86.9347 126.736 85.1723 124.15 84.3217C121.921 83.7666 119.777 82.8591 117.794 81.6314C114.517 81.874 111.203 81.4129 108.059 80.2767C106.135 79.4908 104.032 79.4039 102.1 80.0306C100.59 80.6022 99.0453 81.0823 97.4753 81.4685C95.0175 82.2578 93.4011 84.9257 91.5448 86.6738C90.2914 87.9966 88.97 89.2482 87.586 90.4235C86.2042 91.2514 84.7353 91.9191 83.2046 92.4154C81.3652 93.1424 80.2805 94.7157 78.5675 95.5748C76.0594 96.8002 73.3752 95.39 70.8347 94.7814C69.0406 94.3719 67.287 94.7529 65.4751 94.2985C63.6364 93.582 61.7311 93.0868 59.7974 92.8228C59.5407 92.9243 59.3862 92.283 59.7123 92.2322C62.2305 91.7831 64.6453 93.638 67.1879 93.7515C68.5814 93.7195 69.9793 93.8382 71.3591 94.1059C72.9955 94.7272 74.7057 95.0865 76.4296 95.1713C78.036 94.8768 79.4861 94.0385 80.5564 92.7857C81.9432 91.8956 83.398 91.1206 84.9078 90.4676C88.2842 88.5608 90.9778 84.7389 93.546 81.851C95.6433 79.4613 98.5251 78.8685 101 77.058C102.053 76.408 103.237 76.0094 104.472 75.8899C105.706 75.7705 106.96 75.9332 108.146 76.3666C110.504 76.891 112.635 77.7137 114.91 78.0891C114.061 76.4945 113.43 74.7912 113.034 73.0298C112.484 69.7174 110.793 66.6857 108.28 64.5042C105.561 62.0672 102.989 59.4417 100.224 57.0751C99.0396 56.1812 97.796 55.3773 96.5035 54.6698C95.5046 53.827 94.6624 52.8005 94.0219 51.6448C93.8707 51.2623 93.4754 50.9504 93.1959 50.6187C91.8572 49.5681 90.6188 48.3844 89.4994 47.0853L89.211 46.7311C88.6807 46.3948 88.0794 46.2058 87.4672 46.183C86.8549 46.1602 86.2532 46.3045 85.7222 46.6013C81.5105 48.3719 76.9832 49.2784 72.3844 49.2718C72.1472 49.5476 71.8797 49.8094 71.6514 50.1078C68.6489 53.4524 65.0073 56.1124 60.9434 57.9297C57.1303 59.9831 54.7061 58.7302 51.2511 56.246C50.7478 55.7427 50.1535 55.3489 49.5052 55.0891C48.8569 54.8293 48.1686 54.709 47.4831 54.7359C46.7976 54.7628 46.1297 54.9362 45.521 55.2453C44.9123 55.5544 44.3759 55.9925 43.9452 56.5324C42.3276 57.8686 40.557 58.9963 38.67 59.892C38.594 59.9 38.5168 59.8816 38.4503 59.8397C38.3838 59.7977 38.3318 59.7346 38.3023 59.6601C38.2729 59.5857 38.2677 59.5041 38.2876 59.428C38.3074 59.3519 38.3512 59.2857 38.4121 59.2396C40.01 58.0658 41.5113 56.7592 42.9019 55.332C43.75 54.2244 44.8429 53.3471 46.0935 52.77C48.6921 51.8989 51.0253 53.4219 53.1978 55.1644C54.0188 55.9642 55.0407 56.5031 56.1356 56.7135C57.2305 56.9238 58.3498 56.7964 59.3533 56.3472C61.1056 55.4321 62.7955 54.3993 64.4127 53.255C66.2801 52.3052 67.9913 51.0678 69.4904 49.5833L69.6848 49.3243L67.7033 49.3792C65.4081 49.7423 63.0371 49.3846 60.8919 48.3516C60.157 47.824 59.4721 47.2233 58.8477 46.5584C57.4602 45.4113 55.9068 44.5046 54.2507 43.8752C51.3295 42.4285 50.106 39.2704 46.503 39.2898C42.9 39.3092 40.0863 41.826 37.1165 43.2599C34.3333 44.6949 31.3607 45.721 28.2813 46.3098C26.6148 46.3756 24.942 46.3241 23.2743 46.1558C21.8809 46.1342 20.6598 46.799 19.2894 46.8984C17.3435 47.0432 15.4709 46.873 13.5017 47.2091C12.1475 47.5135 10.7467 47.5838 9.35499 47.4174C6.17848 47.0479 3.04014 46.3074 -7.28478e-06 45.2101C2.79458 46.0006 5.64382 46.5287 8.51265 46.7878C11.7874 47.3144 15.0402 46.1587 18.3029 46.0918C19.7819 46.0795 20.9994 45.4682 22.4464 45.3125C23.6774 45.3164 24.9096 45.385 26.1383 45.518C29.8073 45.2061 33.343 44.0835 36.5097 42.2252C40.6986 40.3094 45.2778 36.0023 50.2115 38.7865C51.1139 39.3607 51.9296 40.0737 52.6297 40.9002C53.9451 42.0033 55.4495 42.8322 57.0558 43.3387C59.3733 44.3217 61.3923 46.489 63.8761 46.7039C66.8265 46.7924 69.7668 46.5546 72.6471 45.9945L72.7754 45.9438C75.7021 43.5914 79.0259 41.8109 82.5924 40.685C83.5558 40.2437 84.6265 40.0891 85.6883 40.2381C86.75 40.3872 87.7621 40.8341 88.6145 41.5303C88.5167 41.2828 88.3083 41.1311 88.1677 40.9005C86.13 37.622 84.7176 32.1714 81.2194 30.3286C79.7582 29.6477 78.3534 28.8364 77.0214 27.9039C75.4766 26.8199 73.6935 26.177 71.8589 26.0425C68.9871 25.4576 66.3284 23.9743 64.2446 21.7946C64.1921 21.7372 64.1598 21.6634 64.1532 21.5857C64.1466 21.508 64.1661 21.4312 64.2084 21.3685C64.2507 21.3058 64.3131 21.261 64.3851 21.2417C64.4571 21.2224 64.5341 21.2298 64.6032 21.2627C66.1332 22.2913 67.7222 23.2185 69.3604 24.0386C70.8559 24.6006 72.4141 24.9396 73.9873 25.0452C75.4669 25.3735 76.8574 26.0753 78.0341 27.0874C79.5194 28.2172 81.2581 28.6745 82.7256 29.7593C85.5607 31.8642 86.8671 36.1081 88.5361 39.1421C90.2052 42.1762 93.0582 44.3261 94.9378 47.0168C96.0566 47.7263 97.2891 48.2106 98.5682 48.4433C100.524 48.7626 102.407 49.397 104.36 49.7697C105.797 49.956 107.158 50.6 108.254 51.6123C110.72 54.0972 110.619 57.5967 111.811 60.6113C111.891 60.874 111.992 61.1299 112.113 61.3763C112.221 61.1305 112.388 60.9195 112.599 60.763C112.81 60.6066 113.058 60.51 113.319 60.4822C113.58 60.4544 113.846 60.4964 114.092 60.6043C114.338 60.7122 114.555 60.8823 114.724 61.0987C116.038 62.6084 116.449 64.5266 117.813 65.9124C119.263 67.4123 120.867 68.7418 122.595 69.8754C126.352 72.4386 129.832 75.4268 132.966 78.7824C136.473 81.9023 140.166 84.7874 144.021 87.419C145.159 88.5969 146.498 89.5426 147.966 90.2038C148.79 90.495 149.541 90.9863 150.155 91.6358C150.769 92.2853 151.228 93.0738 151.493 93.9342ZM77.8401 45.2426L77.3481 45.437C79.6479 45.2816 81.8845 44.6799 83.9425 43.663C84.4345 43.4686 84.8303 43.156 85.2278 42.9729C82.8012 42.5274 79.5515 44.254 77.8401 45.2426ZM101.968 53.6027C102.276 53.8191 102.562 54.0439 102.849 54.2687C104.904 55.9016 106.811 57.7231 108.786 59.4658C108.311 58.3688 107.753 57.3108 107.115 56.3023C105.657 54.3033 103.874 54.0458 101.861 53.645L101.968 53.6027ZM118.417 75.3242C118.777 76.1482 119.307 76.8842 119.97 77.4777C120.633 78.0713 121.41 78.5072 122.246 78.7534C122.663 78.7446 122.841 78.8824 122.624 78.3959C121.169 77.2801 119.815 76.3585 118.31 75.3665L118.417 75.3242Z" fill="#EEDAAE"/>
<path d="M57.0707 101.682C57.0707 101.4 57.0707 101.131 57.0707 100.849C57.0707 100.284 57.0707 99.719 57.0707 99.1676C57.0835 99.0208 57.0724 98.8721 57.0381 98.7312C57.0038 98.5904 56.9471 98.4606 56.8717 98.3504C56.7963 98.2402 56.7039 98.152 56.6006 98.0916C56.4973 98.0312 56.3853 98 56.2721 98C56.1589 98 56.047 98.0312 55.9436 98.0916C55.8403 98.152 55.7479 98.2402 55.6725 98.3504C55.5971 98.4606 55.5404 98.5904 55.5061 98.7312C55.4718 98.8721 55.4607 99.0208 55.4735 99.1676C55.4735 99.4231 55.4735 99.6786 55.4735 99.9341C55.4735 100.19 55.4735 100.163 55.422 100.27C55.3201 100.766 55.2681 101.277 55.2674 101.79C55.2674 101.884 55.2674 101.978 55.2674 102.072C55.2674 102.167 55.2674 102.18 55.2674 102.261C55.1585 102.456 55.0999 102.692 55.0999 102.933C55.0999 103.175 55.1585 103.41 55.2674 103.606C55.3185 103.735 55.3983 103.842 55.4965 103.912C55.5946 103.981 55.7066 104.011 55.8177 103.996C55.9289 103.982 56.0342 103.924 56.1198 103.83C56.2055 103.737 56.2675 103.611 56.2979 103.471C56.4705 103.464 56.637 103.386 56.7738 103.248C56.9106 103.111 57.0109 102.92 57.0604 102.705C57.1093 102.367 57.1128 102.021 57.0707 101.682Z" fill="white"/>
<path d="M43.9799 99.7C43.8712 99.5342 43.7987 99.3429 43.6899 99.177L43.4966 98.9092L43.3154 98.6541C43.3154 98.6541 43.1824 98.4755 43.1462 98.4245C43.1099 98.3734 42.977 98.0928 42.8078 98.029C42.6368 97.9592 42.4472 97.9592 42.2762 98.029C42.0481 97.663 41.7471 97.3539 41.3941 97.1234C41.247 97.0328 41.0776 96.9905 40.9076 97.0018C40.7376 97.0132 40.5747 97.0777 40.4395 97.1872C40.3053 97.2976 40.2043 97.4467 40.1485 97.6165C40.0928 97.7862 40.0847 97.9694 40.1254 98.1438C40.2591 98.5353 40.4376 98.9079 40.657 99.2536C40.8383 99.5597 41.0316 99.8659 41.1887 100.185V100.287V100.427L41.2974 100.644C41.3699 100.784 41.4424 100.937 41.527 101.078C41.6258 101.258 41.739 101.428 41.8654 101.588C42.0303 101.792 42.256 101.932 42.5058 101.983C42.5906 102.005 42.679 102.006 42.7641 101.985C42.8491 101.965 42.9287 101.924 42.9965 101.866C43.0642 101.808 43.1184 101.735 43.1549 101.651C43.1913 101.567 43.209 101.476 43.2066 101.384H43.3516C43.5046 101.364 43.6484 101.296 43.7647 101.189C43.8809 101.083 43.9643 100.941 44.0041 100.784C44.0712 100.612 44.1037 100.426 44.0995 100.239C44.0953 100.053 44.0546 99.8692 43.9799 99.7Z" fill="white"/>
<path d="M35.6494 73.0695C35.3935 72.9179 35.1301 72.7818 34.8605 72.6619C34.7849 72.5282 34.6794 72.4177 34.5539 72.3409C34.4284 72.2641 34.2871 72.2235 34.1433 72.223H33.9855C33.8723 72.0733 33.7364 71.9461 33.5838 71.8468C33.1037 71.5895 32.5651 71.4914 32.0346 71.5646L31.4752 71.2824C30.9406 70.9975 30.3318 70.9254 29.7538 71.0787C29.5864 71.1333 29.4367 71.239 29.3224 71.3834C29.208 71.5278 29.1338 71.7049 29.1083 71.8938C29.0841 72.0841 29.1121 72.2781 29.1886 72.451C29.2652 72.624 29.387 72.7683 29.5387 72.8657C30.4064 73.3731 31.34 73.7326 32.3072 73.9316L32.4936 74.0257C33.426 74.5273 34.9179 75.5933 35.8503 74.5743C35.9444 74.4691 36.0151 74.3416 36.0568 74.2017C36.0985 74.0618 36.1101 73.9132 36.0907 73.7676C36.0713 73.622 36.0213 73.4832 35.9448 73.3621C35.8683 73.241 35.7672 73.1409 35.6494 73.0695Z" fill="white"/>
<path d="M30.0901 97.5738C30.1031 97.4448 30.1031 97.315 30.0901 97.1859C30.1019 97.0679 30.1019 96.9493 30.0901 96.8313C30.0261 96.7027 29.9461 96.5801 29.8513 96.4656C29.7939 96.38 29.7138 96.3066 29.6172 96.2509C29.5207 96.1952 29.4101 96.1587 29.294 96.1442C29.1763 96.0571 29.0265 96.0063 28.8695 96.0001C28.7532 95.9983 28.6385 96.0232 28.5379 96.0721C28.4373 96.1209 28.3547 96.1918 28.299 96.2772C28.2557 96.3521 28.2202 96.4299 28.1928 96.5099V96.6318C28.1928 96.7205 28.1928 96.8091 28.1928 96.8978L28.2724 96.7426C28.1563 96.923 28.0969 97.1252 28.1 97.33C28.1 97.33 28.1 97.4076 28.1 97.4519C28.1 97.729 28.1 98.0061 28.1 98.2831C28.1034 98.4703 28.194 98.6491 28.3525 98.7815C28.511 98.9139 28.725 98.9896 28.9491 98.9924H29.1216C29.3208 99.0173 29.524 98.9803 29.6928 98.8884C29.8615 98.7965 29.984 98.656 30.037 98.4937C30.0436 98.4347 30.0436 98.3753 30.037 98.3164C30.037 98.0615 30.0901 97.7955 30.0901 97.5738Z" fill="white"/>
<path d="M40.8377 106.183C40.7351 106.099 40.612 106.039 40.4787 106.008C40.3856 105.997 40.2915 105.997 40.1983 106.008H40.0637H39.9516C39.8715 105.999 39.7905 106.008 39.7146 106.033C39.6388 106.058 39.5702 106.099 39.5142 106.152C39.4942 106.184 39.4675 106.213 39.4357 106.235C39.385 106.251 39.3362 106.272 39.2898 106.297H38.6954C38.5913 106.297 38.4914 106.335 38.4178 106.403C38.3442 106.471 38.3028 106.563 38.3028 106.659C38.3091 106.729 38.3408 106.794 38.3925 106.845L38.2804 106.918C38.1644 107.031 38.0999 107.181 38.0999 107.337C38.0999 107.492 38.1644 107.642 38.2804 107.755C38.3653 107.865 38.4878 107.945 38.6281 107.983C38.81 108.019 38.9999 107.997 39.1665 107.921C39.4434 107.79 39.7031 107.631 39.9404 107.445L40.1086 107.352C40.2435 107.307 40.3823 107.272 40.5236 107.249H40.3442C40.501 107.251 40.6558 107.216 40.7928 107.145C40.8766 107.102 40.9479 107.041 41.0007 106.967C41.0534 106.894 41.086 106.809 41.0956 106.721C41.1086 106.618 41.0915 106.514 41.0462 106.42C41.0008 106.325 40.9288 106.244 40.8377 106.183Z" fill="white"/>
<path d="M63.053 83.8411C63.0663 83.6843 63.0663 83.5245 63.053 83.3676C63.053 83.1558 63.0128 82.9689 62.9927 82.757V82.5203V82.4206C62.9961 82.3085 62.9961 82.1962 62.9927 82.0841C63.0091 82.0402 63.018 81.9881 63.018 81.9346C63.018 81.8811 63.0091 81.8289 62.9927 81.7851C62.9876 81.5735 62.9387 81.3738 62.8564 81.2275C62.7741 81.0813 62.6647 80.9998 62.5509 81C62.4331 81 62.32 81.0862 62.236 81.2401C62.1521 81.394 62.1041 81.6032 62.1023 81.8224C62.1023 82.1963 62.1023 82.5576 62.1023 82.9315C62.099 83.0228 62.099 83.1143 62.1023 83.2056V84.1651C62.104 84.3855 62.1518 84.596 62.2356 84.7519C62.3193 84.9078 62.4324 84.9968 62.5509 85C62.6373 84.991 62.7209 84.9388 62.7927 84.8489C62.8646 84.759 62.9221 84.6347 62.9593 84.4891C63.0231 84.3951 63.0718 84.27 63.0999 84.1277V83.8411H63.053Z" fill="white"/>
<path d="M66.0061 63.7868C66.0966 63.6684 66.1229 63.5271 66.0792 63.3938C66.0354 63.2605 65.9252 63.1461 65.7726 63.0754H65.6078L65.2371 63.0117C65.036 63.0007 64.8341 63.0007 64.6329 63.0117C64.4412 62.9961 64.2479 62.9961 64.0562 63.0117H63.8777C63.7596 63.0105 63.6427 63.0298 63.5357 63.0685C63.4287 63.1071 63.3344 63.1639 63.2598 63.2347C63.1888 63.3101 63.1418 63.3974 63.1225 63.4895C63.0904 63.5957 63.0924 63.7064 63.1283 63.8118C63.1642 63.9173 63.2329 64.0144 63.3285 64.0946C63.4838 64.2083 63.6655 64.2984 63.864 64.3601C64.1347 64.5643 64.4288 64.749 64.7428 64.9121C64.8772 64.9697 65.0285 65 65.1822 65C65.3359 65 65.4871 64.9697 65.6216 64.9121C65.7534 64.8521 65.8631 64.7668 65.94 64.6646C66.017 64.5623 66.0586 64.4465 66.061 64.3282C66.0594 64.1904 66.0269 64.0539 65.9649 63.9248L66.0061 63.7868Z" fill="white"/>
<path d="M90.0897 55.0169C90.0832 54.8362 90.0302 54.6622 89.9376 54.5185C89.8451 54.3749 89.7176 54.2684 89.5725 54.2137L89.1348 54.1034C88.92 54.0565 88.7029 54.0249 88.4849 54.0089C88.1103 53.9797 87.7341 54.0223 87.3709 54.1349C87.2008 54.1997 87.0523 54.3264 86.9464 54.4972C86.8452 54.4822 86.7427 54.4822 86.6414 54.4972C86.4533 54.5633 86.2942 54.7135 86.1977 54.9163C86.1012 55.1191 86.0748 55.3585 86.1242 55.5839C86.1627 55.7289 86.2316 55.8598 86.3244 55.9645C86.4172 56.0692 86.5308 56.1442 86.6547 56.1824L87.0924 56.2927H86.8934C87.1508 56.3367 87.4041 56.4105 87.6494 56.5132C87.8874 56.7057 88.1461 56.8594 88.4186 56.9699C88.5908 57.0215 88.7723 57.0065 88.9369 56.9272C89.1015 56.8479 89.2405 56.7084 89.3338 56.5289C89.4018 56.4091 89.4511 56.2757 89.4796 56.1352C89.6392 56.1234 89.7892 56.0406 89.8998 55.9035C90.0104 55.7663 90.0734 55.5848 90.0765 55.3949C90.1023 55.2713 90.1068 55.1427 90.0897 55.0169Z" fill="white"/>
<path d="M33.8385 45.6216C33.6338 45.4197 33.3679 45.2761 33.0737 45.2085H32.9764L32.726 45.0833L32.1976 44.7703L31.7248 44.4948C31.6565 44.3877 31.555 44.3007 31.4328 44.2444C30.9948 44.0235 30.5763 43.7723 30.1813 43.4932C29.9727 43.3806 29.7641 43.2679 29.5416 43.1677C29.1936 43.0104 28.7973 42.9619 28.4153 43.03C28.4153 43.03 28.3318 43.03 28.2762 43.1051C28.0568 43.0554 27.825 43.0782 27.6226 43.1692C27.4203 43.2603 27.2609 43.4137 27.1734 43.6015C27.086 43.7893 27.0761 43.9992 27.1458 44.1929C27.2155 44.3867 27.36 44.5516 27.5531 44.6576C28.3797 45.1225 29.2554 45.5125 30.1674 45.8219H30.3343L30.5289 45.9096C30.7097 45.9972 30.8905 46.0849 31.0574 46.185C31.38 46.3769 31.7143 46.5525 32.0586 46.7109C32.6287 46.9613 33.4491 47.2117 33.8941 46.7109C34.0362 46.5553 34.1092 46.3578 34.0989 46.1566C34.0886 45.9554 33.9958 45.7648 33.8385 45.6216Z" fill="white"/>
<path d="M22.9426 48.3051C22.9762 48.3007 23.008 48.2862 23.0342 48.2632C23.0604 48.2402 23.08 48.2097 23.0907 48.1752C23.1014 48.1407 23.1028 48.1037 23.0946 48.0684C23.0865 48.0331 23.0692 48.001 23.0448 47.9758C23.0569 47.8802 23.0569 47.7833 23.0448 47.6877C23.0385 47.43 22.9679 47.1789 22.8404 46.9605C22.8188 46.9166 22.7879 46.8789 22.7501 46.8503C22.7124 46.8216 22.6689 46.803 22.6232 46.7958C22.6199 46.5835 22.539 46.3811 22.398 46.2322C22.257 46.0834 22.0671 46 21.8694 46C21.6727 46.0034 21.4847 46.0879 21.3444 46.2361C21.2041 46.3842 21.1222 46.5846 21.1156 46.7958C21.1156 47.5779 21.1156 48.36 21.1156 49.1421C21.1156 49.5263 21.1156 49.9105 21.1156 50.2947C21.0641 50.7649 21.1395 51.2412 21.3328 51.6668C21.3927 51.7688 21.4756 51.8529 21.5739 51.9112C21.6722 51.9694 21.7827 52 21.895 52C22.0073 52 22.1177 51.9694 22.216 51.9112C22.3143 51.8529 22.3973 51.7688 22.4571 51.6668C22.6447 51.2835 22.7204 50.8483 22.6743 50.4182C22.769 50.3515 22.8459 50.2596 22.8975 50.1513C22.949 50.043 22.9733 49.9222 22.9682 49.8007C22.9682 49.5126 22.9682 49.2381 22.8915 48.95C22.8148 48.6619 22.8915 48.6619 22.8915 48.5109C22.8915 48.36 22.8915 48.5109 22.8915 48.5109C22.8988 48.44 22.9161 48.3706 22.9426 48.3051Z" fill="white"/>
<path d="M39.8913 57.274C39.8434 57.2342 39.789 57.2018 39.7302 57.1781C39.6487 56.9453 39.5021 56.7371 39.3054 56.5754C39.1146 56.4351 38.914 56.307 38.7049 56.1918C38.4914 56.0635 38.2659 55.9534 38.0312 55.863L37.7382 55.7535H37.6211L36.7276 55.2877C36.3815 55.0972 35.9868 54.9978 35.5852 55C35.4543 55.0026 35.3268 55.0401 35.2179 55.108C35.1089 55.176 35.0229 55.2716 34.97 55.3836C34.884 55.3281 34.7816 55.2994 34.6771 55.3014C34.4761 55.2137 34.2528 55.1805 34.0327 55.2055C33.8542 55.2187 33.6825 55.2754 33.5347 55.3699C33.3931 55.4687 33.2902 55.6083 33.2418 55.7672C33.0975 56.5864 33.0631 57.4193 33.1392 58.2466C33.1431 58.4476 33.2312 58.6393 33.3846 58.7802C33.538 58.9211 33.7444 59 33.9594 59C34.1608 58.9971 34.3536 58.9237 34.5 58.7944C34.6464 58.6651 34.7357 58.4892 34.7503 58.3014C34.9641 58.2944 35.1669 58.2109 35.3168 58.0682C35.4667 57.9254 35.5523 57.7343 35.5559 57.5342C35.5925 57.1332 35.5925 56.7299 35.5559 56.3288L36.0539 56.6986L37.0938 57.3836C37.7447 57.8287 38.4881 58.1414 39.2761 58.3014C39.4134 58.3357 39.559 58.3275 39.6909 58.2782C39.8229 58.2288 39.9343 58.1408 40.0084 58.0274C40.0846 57.9084 40.1145 57.7684 40.0931 57.6312C40.0718 57.4939 40.0005 57.3678 39.8913 57.274Z" fill="white"/>
<path d="M87.0603 115.025C86.9781 114.744 86.8527 114.483 86.6901 114.254L86.4981 114.096C86.4078 114.009 86.3115 113.93 86.2101 113.86C86.0196 113.719 85.8042 113.628 85.5792 113.593L85.3187 113.452C85.2745 113.35 85.2084 113.263 85.1267 113.2C84.939 113.083 84.7414 112.988 84.5369 112.917C83.9 112.477 83.1806 112.218 82.4387 112.162C82.3146 112.168 82.1951 112.217 82.0958 112.303C82.0265 112.26 81.962 112.207 81.9038 112.146C81.8111 112.052 81.6916 112 81.5678 112C81.4441 112 81.3246 112.052 81.2318 112.146C81.147 112.251 81.0999 112.388 81.0999 112.531C81.0999 112.674 81.147 112.812 81.2318 112.917C81.4797 113.229 81.7975 113.458 82.1507 113.577C82.6983 114.041 83.3242 114.367 83.9884 114.537L84.2078 114.616H84.3312C84.5329 114.707 84.7298 114.812 84.9209 114.93C85.3051 115.11 85.6444 115.397 85.9084 115.764C86.3335 116.362 87.3072 115.717 87.0603 115.025Z" fill="white"/>
<path d="M61.7864 130.881C61.7339 130.62 61.6445 130.37 61.5211 130.137C61.4496 130.011 61.3693 129.891 61.2809 129.778C61.2809 129.565 61.2051 129.339 61.1798 129.14V129.313C61.1718 129.164 61.133 129.019 61.0661 128.887L61.1546 129.087C61.1493 129.038 61.1493 128.989 61.1546 128.94C61.1171 128.771 61.0262 128.619 60.8965 128.511C60.7669 128.403 60.6062 128.344 60.4405 128.344C60.2749 128.344 60.1142 128.403 59.9845 128.511C59.8549 128.619 59.764 128.771 59.7265 128.94C59.7204 128.993 59.7204 129.047 59.7265 129.1C59.7265 129.1 59.7265 129.206 59.7265 129.26V129.1C59.5816 129.209 59.4715 129.362 59.4106 129.539C59.3351 129.844 59.3351 130.164 59.4106 130.469C59.43 130.564 59.4553 130.657 59.4864 130.748C59.533 130.912 59.601 131.069 59.6886 131.213C59.8607 131.492 60.0841 131.732 60.3458 131.918C60.4354 132.068 60.5512 132.199 60.687 132.303C60.8002 132.365 60.9259 132.397 61.0534 132.397C61.181 132.397 61.3067 132.365 61.4199 132.303C61.5381 132.26 61.644 132.186 61.7279 132.089C61.8118 131.991 61.8711 131.873 61.9002 131.745C61.9121 131.452 61.8735 131.16 61.7864 130.881Z" fill="white"/>
<path d="M64.9914 120.018C64.8792 119.729 64.6948 119.492 64.4649 119.341C64.2302 119.193 63.9724 119.109 63.7088 119.093C63.5611 119.067 63.411 119.067 63.2633 119.093H63.1823H62.9258C62.8196 119.018 62.6965 118.987 62.5748 119.005C62.4531 119.023 62.3394 119.088 62.2507 119.192C62.1698 119.303 62.1186 119.442 62.1041 119.589C62.0896 119.737 62.1125 119.887 62.1697 120.018C62.2306 120.103 62.2984 120.181 62.3722 120.249C62.4784 120.382 62.6076 120.483 62.7503 120.546C63.0205 120.987 63.3283 121.391 63.6683 121.752C63.7987 121.907 63.9725 121.996 64.1544 122C64.3368 121.999 64.5116 121.91 64.6404 121.752C64.7258 121.637 64.782 121.493 64.8024 121.339C64.8601 121.309 64.9117 121.264 64.9537 121.207C64.9957 121.15 65.027 121.082 65.0455 121.009C65.1335 120.683 65.1141 120.327 64.9914 120.018Z" fill="white"/>
<path d="M42.0622 160.809C42.0622 160.594 41.9894 160.388 41.8598 160.237C41.7303 160.085 41.5546 160 41.3714 160C41.1882 160 41.0124 160.085 40.8829 160.237C40.7533 160.388 40.6806 160.594 40.6806 160.809C40.6806 160.97 40.6806 161.132 40.6806 161.294V161.514C40.61 161.789 40.5261 162.059 40.4294 162.323C40.1918 162.92 40.0798 163.575 40.1028 164.234C40.1001 164.378 40.1331 164.52 40.1978 164.643C40.2626 164.767 40.3563 164.865 40.4678 164.927C40.5793 164.989 40.7037 165.012 40.8261 164.994C40.9485 164.975 41.0637 164.915 41.1578 164.822C41.2355 164.871 41.321 164.901 41.4091 164.91C41.5521 164.893 41.6876 164.826 41.7984 164.719C41.9309 164.462 42.0323 164.185 42.0999 163.896C42.0622 162.793 42.0371 161.764 42.0622 160.809Z" fill="white"/>
<path d="M37.9771 147.247C37.9065 147.147 37.8106 147.073 37.7016 147.033C37.5925 146.993 37.4751 146.989 37.3642 147.023C37.1716 147.08 36.9888 147.171 36.8227 147.292C36.6203 147.436 36.4259 147.594 36.2404 147.763C36.0668 147.909 35.9135 148.055 35.7603 148.212C35.607 148.369 35.5355 148.481 35.4129 148.605C35.3181 148.672 35.2407 148.764 35.1882 148.874C35.1147 149.018 35.0859 149.185 35.1062 149.349C35.1264 149.513 35.1947 149.665 35.3006 149.783C35.3853 149.869 35.4865 149.935 35.5968 149.973C35.684 150 35.7751 150.007 35.8647 149.993C35.9543 149.98 36.0404 149.946 36.1178 149.895L36.2609 149.783L36.3834 149.671C36.4321 149.622 36.4735 149.565 36.506 149.502C36.6441 149.488 36.7771 149.438 36.8942 149.356C37.0729 149.246 37.2321 149.102 37.3642 148.93C37.6049 148.621 37.8267 148.295 38.0282 147.954C38.0828 147.843 38.1071 147.718 38.098 147.592C38.0889 147.467 38.0469 147.347 37.9771 147.247Z" fill="white"/>
<path d="M53.7133 149.433L53.5385 149.261C53.5285 149.239 53.5285 149.215 53.5385 149.192V149.135C53.5385 149.055 53.5385 149.135 53.5385 149.135C53.559 149.028 53.5333 148.919 53.4657 148.825C53.3842 148.724 53.2608 148.647 53.1161 148.608C53.0113 148.585 52.9004 148.585 52.7956 148.608C52.7206 148.448 52.6012 148.303 52.446 148.183C52.2884 148.074 52.0881 148.009 51.8779 148C51.7075 148.004 51.5436 148.052 51.4117 148.138C51.3202 148.196 51.2456 148.269 51.1929 148.352C51.1401 148.435 51.1105 148.526 51.1058 148.619C51.1058 148.619 51.1058 148.619 51.1058 148.676C51.0988 148.703 51.0988 148.73 51.1058 148.757C51.0979 148.798 51.0979 148.841 51.1058 148.883C51.124 148.927 51.1485 148.969 51.1787 149.009C51.3535 149.341 51.4991 149.685 51.7177 150.006C51.8393 150.189 51.9966 150.355 52.1838 150.499C52.3185 150.586 52.4596 150.666 52.6062 150.74L52.7082 150.832C52.7915 150.896 52.8929 150.945 53.0043 150.972C53.1157 151 53.2338 151.007 53.3491 150.992C53.4649 150.981 53.576 150.949 53.6742 150.899C53.7725 150.85 53.8555 150.784 53.9173 150.706C54.0657 150.505 54.1262 150.272 54.0893 150.042C54.0525 149.812 53.9203 149.598 53.7133 149.433Z" fill="white"/>
</svg>
