<svg width="211" height="133" viewBox="0 0 211 133" fill="none" xmlns="http://www.w3.org/2000/svg">
<path d="M-48.9525 125.109C-49.2182 125.989 -49.2883 126.913 -49.1573 127.81C-49.0262 128.708 -48.6976 129.555 -48.1966 130.287C-47.6956 131.019 -47.0355 131.617 -46.2671 132.034C-45.4986 132.451 -44.6421 132.676 -43.7634 132.693C-40.8746 132.415 -38.1192 131.17 -35.9148 129.147C-35.1043 128.706 -34.3323 128.19 -33.6086 127.605C-31.0528 125.222 -28.3719 122.99 -25.5791 120.919C-22.7078 119.02 -19.8364 117.121 -16.956 115.092C-16.0822 114.813 -15.2297 114.48 -14.3863 114.278C-9.6807 113.104 -6.49248 110.082 -2.05604 108.623C1.76631 107.671 5.44369 106.114 8.84489 104.008C14.4658 104.425 20.1492 103.634 25.542 101.685C28.8422 100.337 32.4491 100.188 35.7615 101.263C38.3529 102.243 41.0015 103.067 43.6942 103.729C47.9097 105.083 50.6821 109.659 53.8659 112.657C56.0157 114.926 58.282 117.072 60.6556 119.088C63.0256 120.508 65.5451 121.653 68.1703 122.504C71.3253 123.751 73.1855 126.45 76.1236 127.923C80.4253 130.025 85.0291 127.606 89.3864 126.562C92.4634 125.86 95.4712 126.514 98.5787 125.734C101.732 124.505 105 123.656 108.317 123.203C108.757 123.377 109.022 122.277 108.463 122.19C104.144 121.42 100.002 124.601 95.641 124.796C93.251 124.741 90.8534 124.945 88.487 125.404C85.6803 126.47 82.7471 127.086 79.7905 127.231C77.0352 126.726 74.548 125.288 72.7123 123.14C70.3338 121.613 67.8386 120.284 65.2491 119.164C59.4582 115.893 54.8383 109.338 50.4336 104.385C46.8364 100.286 41.8938 99.2698 37.6494 96.1646C35.8437 95.0497 33.8114 94.366 31.6945 94.1612C29.5775 93.9564 27.427 94.2354 25.3932 94.9788C21.3475 95.8782 17.6934 97.2892 13.7912 97.933C15.2469 95.198 16.3301 92.2767 17.0087 89.2557C17.9525 83.5744 20.8523 78.3746 25.1635 74.6331C29.8271 70.4534 34.2368 65.9503 38.9799 61.8913C41.0113 60.3581 43.1441 58.9793 45.361 57.7659C47.0743 56.3203 48.5187 54.5597 49.6174 52.5776C49.8766 51.9216 50.5546 51.3866 51.034 50.8176C53.3301 49.0158 55.454 46.9856 57.3739 44.7575L57.8687 44.15C58.7781 43.5731 59.8095 43.2489 60.8595 43.2099C61.9096 43.1708 62.9416 43.4182 63.8524 43.9274C71.076 46.9642 78.8408 48.5189 86.7284 48.5076C87.1352 48.9807 87.594 49.4297 87.9856 49.9414C93.1353 55.6778 99.3811 60.2402 106.351 63.3571C112.891 66.8789 117.049 64.73 122.975 60.4692C123.838 59.606 124.857 58.9306 125.969 58.485C127.081 58.0394 128.262 57.8331 129.437 57.8792C130.613 57.9253 131.759 58.2227 132.803 58.7529C133.847 59.283 134.767 60.0345 135.505 60.9605C138.28 63.2522 141.317 65.1864 144.553 66.7227C144.683 66.7364 144.816 66.7048 144.93 66.6329C145.044 66.5609 145.133 66.4527 145.184 66.325C145.234 66.1973 145.243 66.0573 145.209 65.9268C145.175 65.7963 145.1 65.6827 144.995 65.6036C142.255 63.5904 139.68 61.3494 137.295 58.9017C135.84 57.002 133.966 55.4972 131.821 54.5074C127.364 53.0135 123.362 55.6256 119.636 58.6142C118.228 59.986 116.475 60.9102 114.597 61.271C112.719 61.6318 110.8 61.4133 109.078 60.6428C106.073 59.0734 103.175 57.3019 100.401 55.3392C97.1982 53.7103 94.2632 51.588 91.6921 49.0418L91.3586 48.5977L94.7571 48.6918C98.6936 49.3146 102.76 48.7011 106.44 46.9294C107.7 46.0244 108.875 44.9941 109.946 43.8537C112.325 41.8864 114.99 40.3312 117.83 39.2517C122.84 36.7705 124.939 31.3539 131.118 31.3872C137.298 31.4205 142.124 35.7371 147.217 38.1964C151.991 40.6576 157.089 42.4176 162.371 43.4274C165.229 43.5402 168.098 43.4519 170.959 43.1632C173.348 43.1263 175.443 44.2664 177.793 44.4369C181.131 44.6853 184.342 44.3933 187.72 44.9698C190.043 45.4919 192.445 45.6125 194.832 45.327C200.28 44.6933 205.663 43.4233 210.877 41.5413V41.5413C206.084 42.8971 201.197 43.8028 196.277 44.2473C190.66 45.1503 185.081 43.1683 179.485 43.0534C176.949 43.0323 174.86 41.9839 172.379 41.7168C170.267 41.7235 168.154 41.8412 166.047 42.0694C159.754 41.5344 153.69 39.6091 148.258 36.4217C141.074 33.1359 133.22 25.7487 124.758 30.524C123.21 31.5088 121.811 32.7317 120.61 34.1492C118.354 36.0412 115.774 37.4628 113.019 38.3316C109.044 40.0175 105.581 43.7348 101.321 44.1033C96.2609 44.2551 91.218 43.8472 86.2779 42.8866L86.0578 42.7996C81.0381 38.7649 75.3374 35.7112 69.2204 33.7801C67.5681 33.0232 65.7316 32.7581 63.9106 33.0137C62.0895 33.2693 60.3536 34.0358 58.8916 35.2299C59.0594 34.8055 59.4168 34.5452 59.6579 34.1498C63.1529 28.5267 65.5754 19.1782 71.5752 16.0175C74.0814 14.8498 76.4908 13.4582 78.7754 11.8589C81.4249 9.99975 84.4831 8.8971 87.6298 8.66641C92.5552 7.6631 97.1153 5.11906 100.689 1.38069C100.779 1.28218 100.835 1.15553 100.846 1.02226C100.857 0.888995 100.824 0.75733 100.751 0.649762C100.679 0.542195 100.572 0.465371 100.448 0.432302C100.325 0.399232 100.193 0.411993 100.074 0.468423C97.4501 2.23259 94.7247 3.82289 91.915 5.22942C89.35 6.19327 86.6774 6.7747 83.9793 6.95589C81.4416 7.51899 79.0566 8.72251 77.0384 10.4585C74.491 12.3962 71.5088 13.1806 68.992 15.0411C64.1293 18.6513 61.8888 25.9301 59.0261 31.1339C56.1634 36.3377 51.2702 40.025 48.0464 44.6399C46.1275 45.8568 44.0137 46.6875 41.8199 47.0865C38.4646 47.6342 35.235 48.7223 31.886 49.3616C29.4214 49.681 27.0873 50.7856 25.2076 52.5219C20.9781 56.7839 21.1508 62.7858 19.1072 67.9564C18.9701 68.4069 18.7966 68.8458 18.5887 69.2683C18.404 68.8469 18.1171 68.4849 17.7552 68.2166C17.3933 67.9483 16.9684 67.7825 16.5203 67.7349C16.0722 67.6872 15.6159 67.7593 15.1943 67.9444C14.7728 68.1294 14.3999 68.4212 14.111 68.7923C11.8575 71.3816 11.1511 74.6715 8.81189 77.0484C6.32521 79.6209 3.57389 81.9012 0.611226 83.8454C-5.83357 88.2417 -11.8009 93.3668 -17.1761 99.1222C-23.1921 104.473 -29.526 109.421 -36.1374 113.935C-38.089 115.955 -40.3867 117.577 -42.9032 118.711C-44.3172 119.211 -45.6056 120.053 -46.6589 121.167C-47.7122 122.281 -48.499 123.634 -48.9525 125.109V125.109ZM77.3712 41.5969L78.215 41.9304C74.2705 41.6639 70.4344 40.6319 66.9047 38.8878C66.061 38.5543 65.3821 38.0183 64.7003 37.7042C68.8622 36.94 74.4359 39.9014 77.3712 41.5969ZM35.9893 55.9356C35.4609 56.3067 34.9692 56.6924 34.4774 57.078C30.9527 59.8786 27.6821 63.0027 24.2951 65.9916C25.1089 64.1101 26.0672 62.2955 27.1606 60.5659C29.661 57.1373 32.7199 56.6956 36.1728 56.0081L35.9893 55.9356ZM7.77599 93.1909C7.15943 94.6042 6.24924 95.8665 5.11269 96.8845C3.97614 97.9025 2.64229 98.6502 1.20976 99.0724C0.494604 99.0574 0.189199 99.2936 0.561408 98.4592C3.05683 96.5456 5.37834 94.9648 7.95949 93.2635L7.77599 93.1909Z" fill="#EEDAAE"/>
</svg>
